<svg xmlns="http://www.w3.org/2000/svg" width="900" height="450" viewBox="0 0 900 450">
<rect width="100%" height="100%" fill="white"/>
<text x="85" y="25" font-size="18">PPL / training bytes; validation=16384</text>
<line x1="85" x2="875" y1="385.0" y2="385.0" stroke="#ddd"/>
<text x="10" y="390.0" font-size="12">-13.2</text>
<line x1="85" x2="875" y1="317.0" y2="317.0" stroke="#ddd"/>
<text x="10" y="322.0" font-size="12">39.3</text>
<line x1="85" x2="875" y1="249.0" y2="249.0" stroke="#ddd"/>
<text x="10" y="254.0" font-size="12">91.7</text>
<line x1="85" x2="875" y1="180.99999999999997" y2="180.99999999999997" stroke="#ddd"/>
<text x="10" y="185.99999999999997" font-size="12">144</text>
<line x1="85" x2="875" y1="113.0" y2="113.0" stroke="#ddd"/>
<text x="10" y="118.0" font-size="12">197</text>
<line x1="85" x2="875" y1="45.0" y2="45.0" stroke="#ddd"/>
<text x="10" y="50.0" font-size="12">249</text>
<text x="85.0" y="405" text-anchor="middle" font-size="12">12,800</text>
<text x="122.61904761904762" y="405" text-anchor="middle" font-size="12">51,200</text>
<text x="273.0952380952381" y="405" text-anchor="middle" font-size="12">204,800</text>
<text x="875.0" y="405" text-anchor="middle" font-size="12">819,200</text>
<polyline points="85.00,208.17 122.62,293.70 273.10,345.65 875.00,354.15" fill="none" stroke="#2563eb" stroke-width="2"/>
<circle cx="85.0" cy="208.17071102119465" r="4" fill="#2563eb"/>
<circle cx="122.61904761904762" cy="293.70161540366223" r="4" fill="#2563eb"/>
<circle cx="273.0952380952381" cy="345.6500893533946" r="4" fill="#2563eb"/>
<circle cx="875.0" cy="354.14703853482814" r="4" fill="#2563eb"/>
<text x="85" y="438" fill="#2563eb" font-size="12">transformer_core</text>
<polyline points="85.00,291.63 122.62,334.96 273.10,351.57 875.00,356.67" fill="none" stroke="#0891b2" stroke-width="2"/>
<circle cx="85.0" cy="291.63147405987183" r="4" fill="#0891b2"/>
<circle cx="122.61904761904762" cy="334.9568710128769" r="4" fill="#0891b2"/>
<circle cx="273.0952380952381" cy="351.5733176129399" r="4" fill="#0891b2"/>
<circle cx="875.0" cy="356.6666666666667" r="4" fill="#0891b2"/>
<text x="275" y="438" fill="#0891b2" font-size="12">transformer_total</text>
<polyline points="85.00,73.52 122.62,307.53 273.10,346.40 875.00,350.97" fill="none" stroke="#e11d48" stroke-width="2"/>
<circle cx="85.0" cy="73.51968463057693" r="4" fill="#e11d48"/>
<circle cx="122.61904761904762" cy="307.52600201970574" r="4" fill="#e11d48"/>
<circle cx="273.0952380952381" cy="346.40455427070236" r="4" fill="#e11d48"/>
<circle cx="875.0" cy="350.9656068172833" r="4" fill="#e11d48"/>
<text x="465" y="438" fill="#e11d48" font-size="12">prg_v1</text>
<polyline points="85.00,73.33 122.62,307.90 273.10,346.24" fill="none" stroke="#a855f7" stroke-width="2"/>
<circle cx="85.0" cy="73.33333333333337" r="4" fill="#a855f7"/>
<circle cx="122.61904761904762" cy="307.8962721082496" r="4" fill="#a855f7"/>
<circle cx="273.0952380952381" cy="346.2423211666505" r="4" fill="#a855f7"/>
<text x="655" y="438" fill="#a855f7" font-size="12">prg_v2_adaptive</text>
<text x="450" y="415" text-anchor="middle" font-size="12">Training target bytes (linear scale)</text>
<text x="15" y="40" font-size="12">ppl</text></svg>